<svg data-v-423bf9ae="" xmlns="http://www.w3.org/2000/svg" viewBox="0 0 252 94" class="iconLeft"><!----><!----><!----><g data-v-423bf9ae="" id="4d083101-9938-4a8f-9d3d-40047e9e65e2" fill="black" transform="matrix(4.307250444043897,0,0,4.307250444043897,87.29768704917872,-0.320944551813497)"><path d="M10.14 4.61C10.14 4.61 9.34 4.68 8.22 4.68C7.94 4.68 6.59 4.61 6.59 4.61L6.52 5.36L7.60 5.53C7.63 5.71 7.73 6.36 7.73 6.59L7.73 9.18L3.09 9.25L3.09 7.01C3.09 6.43 3.16 5.73 3.19 5.53L4.28 5.43L4.23 4.61C4.23 4.61 3.43 4.68 2.31 4.68C2.03 4.68 0.69 4.61 0.69 4.61L0.62 5.36L1.69 5.53C1.72 5.71 1.82 6.36 1.82 6.59L1.82 12.63C1.82 12.87 1.72 13.51 1.69 13.69L0.59 13.92L0.66 14.62C0.66 14.62 2.03 14.55 2.31 14.55C3.43 14.55 4.35 14.62 4.35 14.62L4.45 13.79L3.19 13.69C3.16 13.50 3.09 12.80 3.09 12.21L3.09 9.97L7.73 9.97L7.73 12.63C7.73 12.87 7.63 13.51 7.60 13.69L6.50 13.92L6.57 14.62C6.57 14.62 7.94 14.55 8.22 14.55C9.34 14.55 10.26 14.62 10.26 14.62L10.36 13.79L9.10 13.69C9.07 13.50 9.00 12.80 9.00 12.21L9.00 7.01C9.00 6.43 9.07 5.73 9.10 5.53L10.19 5.43ZM14.15 7.50C12.10 7.50 11.10 9.02 11.10 11.12C11.10 13.23 12.21 14.69 14.32 14.69C15.90 14.69 16.80 13.85 16.80 13.85L16.41 13.20C16.41 13.20 15.51 13.78 14.32 13.78C13.06 13.78 12.46 12.49 12.42 11.23L16.60 11.23L16.84 10.77C16.84 8.81 16.11 7.50 14.15 7.50ZM14.10 8.23C15.09 8.23 15.55 9.02 15.55 10.01C15.55 10.08 15.54 10.29 15.54 10.29L12.43 10.53C12.53 9.37 12.95 8.23 14.10 8.23ZM24.74 13.79L23.77 13.69C23.77 13.69 23.63 12.91 23.63 12.21L23.63 6.36C23.63 5.66 23.73 4.21 23.73 4.21L23.46 3.96L22.65 3.96C22.37 3.96 21.20 3.91 21.20 3.91L21.13 4.65L22.36 4.87C22.36 4.87 22.50 5.66 22.50 5.94L22.50 7.84C21.76 7.57 21.34 7.50 20.75 7.50C18.93 7.50 17.81 8.88 17.81 11.09C17.81 13.33 18.87 14.69 20.62 14.69C21.36 14.69 22.36 14.07 22.64 13.43L22.83 14.55C23.95 14.55 24.64 14.62 24.64 14.62ZM22.50 11.65C22.50 12.99 21.84 13.79 20.72 13.79C19.71 13.79 19.10 12.77 19.10 11.10C19.10 9.37 19.75 8.36 20.89 8.36C21.48 8.36 21.97 8.51 22.50 8.86ZM31.75 8.39L31.75 7.57L30.04 7.84C29.62 7.63 29.13 7.50 28.57 7.50C26.95 7.50 25.87 8.51 25.87 10.04C25.87 11.05 26.35 11.83 27.13 12.25C26.45 12.82 26.12 13.17 26.12 13.37C26.12 13.86 26.33 14.18 26.84 14.39C26.10 14.98 25.56 15.55 25.56 15.81C25.56 17.14 26.52 17.84 28.34 17.84C30.30 17.84 31.89 16.63 31.89 15.16C31.89 14.49 31.67 14.07 31.26 13.94C30.73 13.78 29.51 13.65 28.56 13.52C27.51 13.40 27.24 13.31 27.24 13.03C27.24 12.95 27.36 12.75 27.62 12.45C27.92 12.53 28.22 12.57 28.57 12.57C30.20 12.57 31.28 11.56 31.28 10.04C31.28 9.34 31.05 8.74 30.63 8.30ZM27.37 14.56C27.64 14.63 27.96 14.69 28.34 14.73L30.16 14.97C30.58 15.02 30.70 15.18 30.70 15.60C30.70 16.45 29.88 17.04 28.73 17.04C27.38 17.04 26.77 16.60 26.77 15.65C26.77 15.39 26.88 15.16 27.37 14.56ZM28.57 8.22C29.57 8.22 30.06 8.82 30.06 10.04C30.06 11.26 29.57 11.86 28.57 11.86C27.58 11.86 27.09 11.26 27.09 10.04C27.09 8.83 27.59 8.22 28.57 8.22ZM34.82 7.88L34.55 7.63L34.05 7.63C33.77 7.63 32.76 7.57 32.76 7.57L32.69 8.32L33.75 8.54C33.75 8.54 33.89 9.32 33.89 9.60L33.89 12.63C33.89 12.91 33.75 13.69 33.75 13.69L32.69 13.92L32.76 14.62C32.76 14.62 34.03 14.55 34.31 14.55C35.43 14.55 36.40 14.62 36.40 14.62L36.50 13.79L35.13 13.69C35.13 13.69 35.03 12.91 35.03 12.21L35.03 10.57C35.08 9.25 35.62 8.48 36.90 8.47L36.96 8.47C37.06 8.76 37.16 9.09 37.16 9.17L37.16 9.91L37.97 9.95L38.11 7.64C38.11 7.64 37.67 7.50 37.16 7.50C36.15 7.50 35.45 7.91 34.90 8.81Z"></path></g><!----><g data-v-423bf9ae="" id="8b1ceaf9-4d13-4de6-b41a-8699998b82a0" transform="matrix(1.0167530483669704,0,0,1.0167530483669704,-15.177186439467022,-2.576479408404417)" stroke="none" fill="black"><path d="M79.59 94.584c-.377-.226-.66-1.03-.818-2.318-.295-2.413-1.336-4.555-3.378-6.947-.852-.999-1.646-2.257-1.765-2.797-.144-.654-.859-1.471-2.145-2.448-1.592-1.21-2.068-1.828-2.72-3.527-.435-1.133-1.11-2.277-1.5-2.543-.389-.267-1.799-1.374-3.132-2.46-2.89-2.355-4.373-2.793-5.824-1.72-.806.595-1.466.712-4.031.712-2.053 0-3.393.17-4.052.513-.541.282-1.248.514-1.57.516-.537.002-.545-.115-.092-1.398 1.48-4.194 1.96-11.971.891-14.407-.29-.662-.33-.069-.17 2.584.325 5.418-.573 9.769-3.723 18.033-1.443 3.788-1.462 4.017-.738 8.698.164 1.056.055 1.468-.564 2.126-.744.792-.75.864-.227 2.401.927 2.721-.373 4.382-3.764 4.805-2.86.358-3.08.01-2.167-3.442.883-3.342 1.273-11.334.701-14.38-.763-4.065-3.16-7.752-5.971-9.187-2.028-1.034-2.303-.581-.392.645 2.239 1.436 4.26 4.095 4.26 5.602 0 .629-.551 3.222-1.225 5.762-1.045 3.935-1.192 4.936-.996 6.766.18 1.675.1 2.422-.359 3.39-.33.698-.5 1.592-.387 2.043.167.666-.005.9-1.005 1.377-2.334 1.113-5.461.586-5.856-.987-.186-.74.02-1.152 1.156-2.331 1.656-1.718 2.36-3.043 2.863-5.387.314-1.466.248-2.504-.403-6.289-.709-4.122-1.02-5.066-3.445-10.418-4.58-10.118-5.759-14.396-5.314-19.3.238-2.636 1.675-7.786 2.274-8.156.757-.468 2.067-3.718 2.245-5.572.14-1.444-.007-2.673-.54-4.554-1.445-5.1-1.571-5.854-1.031-6.188.855-.528.064-.796-1.022-.346-.82.34-1.388.344-2.674.02-2.987-.75-3.603-2.112-1.799-3.974l1.038-1.07-1.698-1.1c-4.893-3.172-3.922-9.597 1.916-12.67 3.29-1.731 3.83-1.75 2.004-.066-3.136 2.891-4.214 6.092-2.724 8.089 1.08 1.447 2.302 2.218 3.844 2.424 1.272.171 1.596.042 3.406-1.352 1.1-.847 2.31-1.658 2.688-1.801.657-.25 7.726-.567 11.337-.508 2.414.04 4.385 1.01 5.664 2.791 1.884 2.621 3.78 2.763 5.824.436 2.539-2.892 1.608-6.902-2.238-9.636l-1.637-1.164 1.349.007c2.486.014 5.725 1.98 6.87 4.169.261.502.647 2.019.857 3.372.365 2.352.342 2.54-.526 4.316-.5 1.02-1.618 2.481-2.486 3.245-1.519 1.336-1.556 1.414-.982 2.048.847.937.553 1.818-.839 2.514-1.478.74-3.398.77-5.045.082-1.29-.539-2.103-.37-1.05.22.402.225.598.755.598 1.617 0 3.728 2.754 8.98 6.873 13.109 3.022 3.03 5.677 4.463 9.793 5.288 5.6 1.121 8.558 3.361 10.969 8.305 1.766 3.622 2.577 7.104 2.96 12.7.539 7.908 1.358 13.282 2.522 16.557.281.791.785 3.11 1.12 5.155.478 2.918.821 4.021 1.599 5.136.592.85.944 1.747.875 2.234-.104.73-.308.822-2.005.897-1.04.046-2.15-.072-2.467-.261zm-15.135-1.97c-.353-.403-.436-.83-.25-1.29.154-.377.29-1.632.303-2.788.02-1.745-.18-2.51-1.182-4.512-.698-1.395-1.852-3.007-2.74-3.824-1.526-1.408-2.583-3.013-2.583-3.924 0-.264-.309-.76-.687-1.101-.905-.82-.867-1.152.176-1.548 1.08-.41 1.841-1.899 1.266-2.474-.517-.517.103-1.304 1.028-1.304.957 0 1.949.584 3.73 2.195.858.777 1.99 1.722 2.515 2.1.952.686.953.689.395 2.011-.62 1.472-.47 2.765.538 4.649.343.639.727 2.03.855 3.092.127 1.062.609 3.067 1.07 4.455 1.157 3.492 1.052 3.857-1.264 4.395-2.473.575-2.552.572-3.17-.133zM54.199 72.948c-1.33-.703-2.252-1.625-1.939-1.939.108-.108 1.522-.086 3.142.049 3.224.269 3.611.621 2.04 1.857-1.102.867-1.655.873-3.243.033z"></path></g><!----></svg>