<svg data-v-fde0c5aa="" xmlns="http://www.w3.org/2000/svg" viewBox="0 0 300 300" class="font"><!----><defs data-v-fde0c5aa=""><!----></defs><rect data-v-fde0c5aa="" fill="transparent" x="0" y="0" width="300px" height="300px" class="logo-background-square"></rect><defs data-v-fde0c5aa=""><linearGradient data-v-fde0c5aa="" gradientTransform="rotate(25)" id="8cfdc436-e3f9-4c69-8025-f018ea47d4da" x1="0%" y1="0%" x2="100%" y2="0%"><stop data-v-fde0c5aa="" offset="0%" stop-color="#041804" stop-opacity="1"></stop><stop data-v-fde0c5aa="" offset="100%" stop-opacity="1"></stop></linearGradient></defs><g data-v-fde0c5aa="" id="8907cd57-ed40-486c-950b-97ab215208f3" fill="url(#8cfdc436-e3f9-4c69-8025-f018ea47d4da)" transform="matrix(5.8635393740907436,0,0,5.8635393740907436,36.54051157356972,86.23400790878644)"><path d="M10.14 4.61C10.14 4.61 9.34 4.68 8.22 4.68C7.94 4.68 6.59 4.61 6.59 4.61L6.52 5.36L7.60 5.53C7.63 5.71 7.73 6.36 7.73 6.59L7.73 9.18L3.09 9.25L3.09 7.01C3.09 6.43 3.16 5.73 3.19 5.53L4.28 5.43L4.23 4.61C4.23 4.61 3.43 4.68 2.31 4.68C2.03 4.68 0.69 4.61 0.69 4.61L0.62 5.36L1.69 5.53C1.72 5.71 1.82 6.36 1.82 6.59L1.82 12.63C1.82 12.87 1.72 13.51 1.69 13.69L0.59 13.92L0.66 14.62C0.66 14.62 2.03 14.55 2.31 14.55C3.43 14.55 4.35 14.62 4.35 14.62L4.45 13.79L3.19 13.69C3.16 13.50 3.09 12.80 3.09 12.21L3.09 9.97L7.73 9.97L7.73 12.63C7.73 12.87 7.63 13.51 7.60 13.69L6.50 13.92L6.57 14.62C6.57 14.62 7.94 14.55 8.22 14.55C9.34 14.55 10.26 14.62 10.26 14.62L10.36 13.79L9.10 13.69C9.07 13.50 9.00 12.80 9.00 12.21L9.00 7.01C9.00 6.43 9.07 5.73 9.10 5.53L10.19 5.43ZM14.15 7.50C12.10 7.50 11.10 9.02 11.10 11.12C11.10 13.23 12.21 14.69 14.32 14.69C15.90 14.69 16.80 13.85 16.80 13.85L16.41 13.20C16.41 13.20 15.51 13.78 14.32 13.78C13.06 13.78 12.46 12.49 12.42 11.23L16.60 11.23L16.84 10.77C16.84 8.81 16.11 7.50 14.15 7.50ZM14.10 8.23C15.09 8.23 15.55 9.02 15.55 10.01C15.55 10.08 15.54 10.29 15.54 10.29L12.43 10.53C12.53 9.37 12.95 8.23 14.10 8.23ZM24.74 13.79L23.77 13.69C23.77 13.69 23.63 12.91 23.63 12.21L23.63 6.36C23.63 5.66 23.73 4.21 23.73 4.21L23.46 3.96L22.65 3.96C22.37 3.96 21.20 3.91 21.20 3.91L21.13 4.65L22.36 4.87C22.36 4.87 22.50 5.66 22.50 5.94L22.50 7.84C21.76 7.57 21.34 7.50 20.75 7.50C18.93 7.50 17.81 8.88 17.81 11.09C17.81 13.33 18.87 14.69 20.62 14.69C21.36 14.69 22.36 14.07 22.64 13.43L22.83 14.55C23.95 14.55 24.64 14.62 24.64 14.62ZM22.50 11.65C22.50 12.99 21.84 13.79 20.72 13.79C19.71 13.79 19.10 12.77 19.10 11.10C19.10 9.37 19.75 8.36 20.89 8.36C21.48 8.36 21.97 8.51 22.50 8.86ZM31.75 8.39L31.75 7.57L30.04 7.84C29.62 7.63 29.13 7.50 28.57 7.50C26.95 7.50 25.87 8.51 25.87 10.04C25.87 11.05 26.35 11.83 27.13 12.25C26.45 12.82 26.12 13.17 26.12 13.37C26.12 13.86 26.33 14.18 26.84 14.39C26.10 14.98 25.56 15.55 25.56 15.81C25.56 17.14 26.52 17.84 28.34 17.84C30.30 17.84 31.89 16.63 31.89 15.16C31.89 14.49 31.67 14.07 31.26 13.94C30.73 13.78 29.51 13.65 28.56 13.52C27.51 13.40 27.24 13.31 27.24 13.03C27.24 12.95 27.36 12.75 27.62 12.45C27.92 12.53 28.22 12.57 28.57 12.57C30.20 12.57 31.28 11.56 31.28 10.04C31.28 9.34 31.05 8.74 30.63 8.30ZM27.37 14.56C27.64 14.63 27.96 14.69 28.34 14.73L30.16 14.97C30.58 15.02 30.70 15.18 30.70 15.60C30.70 16.45 29.88 17.04 28.73 17.04C27.38 17.04 26.77 16.60 26.77 15.65C26.77 15.39 26.88 15.16 27.37 14.56ZM28.57 8.22C29.57 8.22 30.06 8.82 30.06 10.04C30.06 11.26 29.57 11.86 28.57 11.86C27.58 11.86 27.09 11.26 27.09 10.04C27.09 8.83 27.59 8.22 28.57 8.22ZM34.82 7.88L34.55 7.63L34.05 7.63C33.77 7.63 32.76 7.57 32.76 7.57L32.69 8.32L33.75 8.54C33.75 8.54 33.89 9.32 33.89 9.60L33.89 12.63C33.89 12.91 33.75 13.69 33.75 13.69L32.69 13.92L32.76 14.62C32.76 14.62 34.03 14.55 34.31 14.55C35.43 14.55 36.40 14.62 36.40 14.62L36.50 13.79L35.13 13.69C35.13 13.69 35.03 12.91 35.03 12.21L35.03 10.57C35.08 9.25 35.62 8.48 36.90 8.47L36.96 8.47C37.06 8.76 37.16 9.09 37.16 9.17L37.16 9.91L37.97 9.95L38.11 7.64C38.11 7.64 37.67 7.50 37.16 7.50C36.15 7.50 35.45 7.91 34.90 8.81Z"></path></g><!----><!----></svg>