<svg data-v-fde0c5aa="" xmlns="http://www.w3.org/2000/svg" viewBox="0 0 300 300" class="iconLeft"><!----><defs data-v-fde0c5aa=""><!----></defs><rect data-v-fde0c5aa="" fill="transparent" x="0" y="0" width="300px" height="300px" class="logo-background-square"></rect><defs data-v-fde0c5aa=""><!----></defs><g data-v-fde0c5aa="" id="b5006ada-e0f1-41c1-94dc-5f6ef9201b3c" fill="#000000"><path d=""></path></g><defs data-v-fde0c5aa=""><linearGradient data-v-fde0c5aa="" gradientTransform="rotate(25)" id="e581a456-d6cc-45f0-8a2d-d08eff30c1c6" x1="0%" y1="0%" x2="100%" y2="0%"><stop data-v-fde0c5aa="" offset="0%" stop-color="#041804" stop-opacity="1"></stop><stop data-v-fde0c5aa="" offset="100%" stop-opacity="1"></stop></linearGradient></defs><g data-v-fde0c5aa="" id="7bf98b88-8e55-4862-8cd0-dc07ba82f1eb" stroke="none" fill="url(#e581a456-d6cc-45f0-8a2d-d08eff30c1c6)"><path d="M79.59 94.584c-.377-.226-.66-1.03-.818-2.318-.295-2.413-1.336-4.555-3.378-6.947-.852-.999-1.646-2.257-1.765-2.797-.144-.654-.859-1.471-2.145-2.448-1.592-1.21-2.068-1.828-2.72-3.527-.435-1.133-1.11-2.277-1.5-2.543-.389-.267-1.799-1.374-3.132-2.46-2.89-2.355-4.373-2.793-5.824-1.72-.806.595-1.466.712-4.031.712-2.053 0-3.393.17-4.052.513-.541.282-1.248.514-1.57.516-.537.002-.545-.115-.092-1.398 1.48-4.194 1.96-11.971.891-14.407-.29-.662-.33-.069-.17 2.584.325 5.418-.573 9.769-3.723 18.033-1.443 3.788-1.462 4.017-.738 8.698.164 1.056.055 1.468-.564 2.126-.744.792-.75.864-.227 2.401.927 2.721-.373 4.382-3.764 4.805-2.86.358-3.08.01-2.167-3.442.883-3.342 1.273-11.334.701-14.38-.763-4.065-3.16-7.752-5.971-9.187-2.028-1.034-2.303-.581-.392.645 2.239 1.436 4.26 4.095 4.26 5.602 0 .629-.551 3.222-1.225 5.762-1.045 3.935-1.192 4.936-.996 6.766.18 1.675.1 2.422-.359 3.39-.33.698-.5 1.592-.387 2.043.167.666-.005.9-1.005 1.377-2.334 1.113-5.461.586-5.856-.987-.186-.74.02-1.152 1.156-2.331 1.656-1.718 2.36-3.043 2.863-5.387.314-1.466.248-2.504-.403-6.289-.709-4.122-1.02-5.066-3.445-10.418-4.58-10.118-5.759-14.396-5.314-19.3.238-2.636 1.675-7.786 2.274-8.156.757-.468 2.067-3.718 2.245-5.572.14-1.444-.007-2.673-.54-4.554-1.445-5.1-1.571-5.854-1.031-6.188.855-.528.064-.796-1.022-.346-.82.34-1.388.344-2.674.02-2.987-.75-3.603-2.112-1.799-3.974l1.038-1.07-1.698-1.1c-4.893-3.172-3.922-9.597 1.916-12.67 3.29-1.731 3.83-1.75 2.004-.066-3.136 2.891-4.214 6.092-2.724 8.089 1.08 1.447 2.302 2.218 3.844 2.424 1.272.171 1.596.042 3.406-1.352 1.1-.847 2.31-1.658 2.688-1.801.657-.25 7.726-.567 11.337-.508 2.414.04 4.385 1.01 5.664 2.791 1.884 2.621 3.78 2.763 5.824.436 2.539-2.892 1.608-6.902-2.238-9.636l-1.637-1.164 1.349.007c2.486.014 5.725 1.98 6.87 4.169.261.502.647 2.019.857 3.372.365 2.352.342 2.54-.526 4.316-.5 1.02-1.618 2.481-2.486 3.245-1.519 1.336-1.556 1.414-.982 2.048.847.937.553 1.818-.839 2.514-1.478.74-3.398.77-5.045.082-1.29-.539-2.103-.37-1.05.22.402.225.598.755.598 1.617 0 3.728 2.754 8.98 6.873 13.109 3.022 3.03 5.677 4.463 9.793 5.288 5.6 1.121 8.558 3.361 10.969 8.305 1.766 3.622 2.577 7.104 2.96 12.7.539 7.908 1.358 13.282 2.522 16.557.281.791.785 3.11 1.12 5.155.478 2.918.821 4.021 1.599 5.136.592.85.944 1.747.875 2.234-.104.73-.308.822-2.005.897-1.04.046-2.15-.072-2.467-.261zm-15.135-1.97c-.353-.403-.436-.83-.25-1.29.154-.377.29-1.632.303-2.788.02-1.745-.18-2.51-1.182-4.512-.698-1.395-1.852-3.007-2.74-3.824-1.526-1.408-2.583-3.013-2.583-3.924 0-.264-.309-.76-.687-1.101-.905-.82-.867-1.152.176-1.548 1.08-.41 1.841-1.899 1.266-2.474-.517-.517.103-1.304 1.028-1.304.957 0 1.949.584 3.73 2.195.858.777 1.99 1.722 2.515 2.1.952.686.953.689.395 2.011-.62 1.472-.47 2.765.538 4.649.343.639.727 2.03.855 3.092.127 1.062.609 3.067 1.07 4.455 1.157 3.492 1.052 3.857-1.264 4.395-2.473.575-2.552.572-3.17-.133zM54.199 72.948c-1.33-.703-2.252-1.625-1.939-1.939.108-.108 1.522-.086 3.142.049 3.224.269 3.611.621 2.04 1.857-1.102.867-1.655.873-3.243.033z"></path></g><!----></svg>